<svg viewBox="0 0 500 500" preserveAspectRatio="xMidYMid slice" xmlns="http://www.w3.org/2000/svg">
  <path clip-rule="evenodd" d="M113.7 228.9h67.7a18.2 18.2 0 0 1 13 30.8l.2.2-46.4 46.3a81.7 81.7 0 1 0 84-19.7l12.1-12.2H400c37 0 67.2-31.5 68.1-70.8v-1.9a20 20 0 0 0-20-18.1H335.2l81.5-81.5a20 20 0 0 0 1.4-27l-1.4-1.4c-28.3-27-72-28-98.2-1.9L206.7 183.5H187a81.8 81.8 0 1 0-73.2 45.4zM150 147a36.3 36.3 0 1 1-72.6 0 36.3 36.3 0 0 1 72.6 0zm81.7 191.3a36.3 36.3 0 1 1-51.3 51.3 36.3 36.3 0 0 1 51.3-51.3z" fill="#010101" fill-rule="evenodd"/>
</svg>
