<svg xmlns="http://www.w3.org/2000/svg" xmlns:xlink="http://www.w3.org/1999/xlink" preserveAspectRatio="xMidYMid slice" viewBox="0 0 703 651">
  <defs>
    <path d="M527.8 205.4l-1.3 16.8-1.3 16.4-1.2 16-1.2 15.7-1.2 15.3-1.1 15-1.1 14.5-1 14.2-1.1 13.8-1 13.4-1 13.1-1 12.7-.9 12.3-.9 12-.9 11.5-.8 11.2-.8 10.8-.8 10.5-.7 10-.7 9.8-.7 9.3-.6 9-.6 8.6-.6 8.2-.6 7.8-.5 7.5-.5 7-.4 6.8-.4 6.3-.4 6-.4 5.6-.3 5.3-.4 4.8-.2 4.5-.3 4.1-.2 3.7-.1 3.4-.2 3-.1 2.6-.1 2.4-.2 2.4-.2 2.3-.2 2.2-.3 2.1-.3 2.2-.4 2-.4 2-.4 2-.5 1.8-.5 1.9-.5 1.7-.6 1.7-.6 1.7-.7 1.6-.7 1.5-.8 1.5-.7 1.4-.8 1.3-.9 1.3-.9 1.3-1 1.2-.9 1-1 1.2-1 1-1.1 1-1.2.8-1.1.9-1.2.7-1.3.8-1.3.6-1.3.6-1.3.6-1.4.4-1.5.5-1.4.4-1.6.3-1.5.2-1.6.2-1.6.1H144.8l-1.6-.3-1.5-.2-1.5-.4-1.5-.3-1.4-.5-1.4-.4-1.4-.6-1.3-.6-1.3-.6-1.2-.8-1.2-.8-1.2-.8-1.1-.9-1.1-1-1-1-1-1-1-1.1-1-1.2-.9-1.3-.8-1.3-.9-1.3-.7-1.4-.8-1.5-.7-1.5-.6-1.6-.7-1.7-.5-1.7-.6-1.8-.5-1.8-.5-1.8-.4-2-.4-2-.3-2-.4-2.2-.2-2.1-.3-2.3-.2-2.2-.1-2.4-.2-2.4v-2.6l-.2-3-.2-3.4-.2-3.7-.3-4.1-.2-4.5-.3-4.9-.4-5.2-.3-5.6-.4-6-.5-6.3-.4-6.7-.5-7.1-.5-7.5-.6-7.8-.6-8.2-.6-8.6-.6-9-.7-9.3-.7-9.7-.7-10.1-.8-10.5-.8-10.8-.8-11.2-.9-11.6-.9-11.9-.9-12.3-1-12.7-1-13-1-13.5-1-13.8-1-14.2-1.2-14.5-1.1-15-1.2-15.3-1.2-15.7-1.2-16-1.3-16.4-1.3-16.8-1.3-17.2h446.5l-1.3 17.2zM201.2 550h31l-14.5-314.4h-30.9L201.2 550zm182.8 0h30.9l14.4-314.4h-31L384 550zm-90.4 0h33V235.6h-33V550z" id="a"/>
    <path d="M65.9 114l6.4-47.3 130.2 17.6 5.3-38.4v-.5l.1-.5v-.4l.2-.5v-.5l.1-.5.1-.5.1-.5.1-.4.2-.5v-.5l.2-.5.1-.4.1-.5.2-.5.1-.4.2-.5.1-.5.2-.4.1-.5.2-.4.2-.5.1-.5.2-.4.2-.5.2-.4.2-.5.1-.4.2-.5.2-.4.3-.4.2-.5.2-.4.2-.5.2-.4.3-.4.2-.5.2-.4.3-.4.2-.4 1-1.6 1-1.6 1-1.5 1-1.5 1-1.4 1.2-1.3 1-1.4 1.2-1.2 1.1-1.3 1.2-1.1 1.2-1.1 1.2-1.1 1.2-1 1.3-1 1.3-1 1.3-.8 1.3-.9 1.3-.8 1.4-.7 1.3-.7 1.5-.6 1.4-.6 1.4-.6 1.5-.5 1.5-.4 1.5-.4 1.5-.4 1.6-.3 1.6-.2 1.6-.3 1.6-.1 1.6-.1h1.7l1.7-.1h1.7l1.7.1 1.8.1 1.7.2 1.8.2 1.8.3 2.2.4 2.2.3 2.3.4 2.3.3 2.3.4 2.5.4 2.4.4 2.6.4 2.6.4 2.6.4 2.7.3 2.8.5 2.8.4 2.9.4 3 .4 2.9.5 3 .4 3.1.4 3.2.5 3.2.4 3.2.5 3.3.5 3.4.4 3.4.5h.6l.5.1 3.4.5 3.4.4 3.3.5 3.3.4 3.2.4 3.2.4 3 .4 3.1.4 3 .4 3 .4 2.8.3 2.8.4 2.8.3 2.7.4 2.7.3 2.6.3 2.5.3 2.5.3 2.5.3 2.3.3 2.4.2 2.3.3 2.2.2 2.1.3 1.9.2 1.8.3 1.7.3 1.7.3 1.7.4 1.7.4 1.6.5 1.6.5 1.5.5 1.5.6 1.5.6 1.5.7 1.4.7 1.4.8 1.3.8 1.3.8 1.3.9 1.3.9 1.2 1 1.2 1 1.1 1 1.1 1 1.1 1.1 1 1.2 1 1.2 1 1.2 1 1.3 1 1.3.8 1.4.8 1.4.9 1.4.7 1.5.8 1.5.7 1.6.6 1.6.7 1.6.6 1.7.6 1.8.5 1.7.5 1.8.1.5.2.5v.5l.2.4.1.5.1.5.1.5v.4l.2.5v.5l.1.5.1.5v.5l.1.4.1.5v.5l.1.5v1l.1.5v1.4l.1.5v4.4l-.1.5v.5l-.1.5v.4l-.1.5v.5l-.1.5-5.3 38.4 130.3 17.7-6.5 47.4-212.5-28.9-80.4-11L66 114zm193.7-81.8h-.9l-.9.2-.9.1-.9.2-.8.3-.9.2-.8.3-.8.3-.8.3-.8.3-.8.4-.7.4-.7.4-.7.4-.6.5-.7.5-.6.5-.6.5-.5.5-.5.5-.5.5-.5.6-.5.6-.4.5-.4.6-.3.6-.4.6-.3.6-.3.7-.2.6-.2.6-.2.6v.7l-.2.6v.4l-.1.4v.4l-.1.4v.4l-.1.4v.4l-.1.4v.4l-.1.4v.3l-.1.4v.7l-.1.4v.3l-.1.4v.7l-.1.3v.6l-.1.4v.6l-.1.3v.6l-.1.3V58.6l-.1.3v.8l-.1.3v.7l-3.9 28 130.2 17.8 49.8 6.7 3.9-28v-.5l.1-.3v-.2l.1-.3v-.3l.1-.3v-.2l.1-.3v-.3l.1-.3V82l.1-.3v-.3l.1-.3v-.3l.1-.3v-.3l.1-.3v-.4l.1-.3v-.3l.2-.4v-.7l.1-.3V77l.1-.4v-.3l.1-.4v-.4l.1-.4.1-.3v-.4l.1-.4v-.4l.1-.4v-.4l.1-.4.1-.5v-.6l.1-.6V68.7l-.2-.7-.1-.6-.2-.7-.2-.7-.2-.6-.2-.7-.3-.7-.3-.6-.4-.7-.3-.7-.4-.6-.5-.6-.4-.7-.5-.6-.5-.6-.6-.6-.5-.6-.6-.6-.6-.5-.7-.6-.7-.5-.7-.5-.7-.5-.8-.4-.7-.5-.8-.4-.9-.4-.8-.3-.9-.4-.9-.3-1-.3-.9-.2-1-.3-1-.1-1-.2-27.3-3.7-1.6-.2-1.8-.3-11.7-1.6h-.3l-3.2-.4-1.3-.2-9-1.3h-.3l-4.2-.6-1.8-.2-4.6-.6-2.3-.4-1.2-.1-3.5-.5-3.4-.5-4.5-.6-8-1-1.6-.3-2.1-.3h-1.1l-2.6-.4-.8-.2-2.5-.3-1-.1-3.3-.5-2.7-.3-27.3-3.8h-1l-1-.2h-4z" id="b"/>
  </defs>
  <use xlink:href="#a" class="trashbin-body"/>
  <use xlink:href="#a" fill-opacity="0" stroke="#000" stroke-width="0"/>
  <g>
    <use xlink:href="#b" class="trashbin-body"/>
    <use xlink:href="#b" fill-opacity="0" stroke="red" stroke-width="0"/>
  </g>
</svg>
