<?xml version="1.0" encoding="UTF-8" standalone="no"?>
<!DOCTYPE svg PUBLIC "-//W3C//DTD SVG 1.1//EN" "http://www.w3.org/Graphics/SVG/1.1/DTD/svg11.dtd">
<svg version="1.1" xmlns="http://www.w3.org/2000/svg" xmlns:xlink="http://www.w3.org/1999/xlink" preserveAspectRatio="xMidYMid meet" viewBox="0 0 640 640" width="640" height="640"><defs><path d="M549.79 205.39L548.49 222.19L547.23 238.61L546 254.65L544.8 270.33L543.63 285.63L542.5 300.56L541.39 315.11L540.31 329.29L539.27 343.1L538.26 356.54L537.27 369.6L536.32 382.29L535.4 394.61L534.51 406.55L533.65 418.12L532.82 429.32L532.02 440.14L531.25 450.6L530.52 460.67L529.81 470.38L529.14 479.71L528.49 488.67L527.88 497.26L527.3 505.47L526.75 513.31L526.23 520.78L525.74 527.87L525.28 534.6L524.86 540.94L524.46 546.92L524.09 552.52L523.76 557.75L523.45 562.61L523.18 567.09L522.94 571.2L522.73 574.94L522.55 578.3L522.4 581.29L522.28 583.91L522.16 586.31L522 588.66L521.8 590.95L521.56 593.17L521.28 595.34L520.97 597.46L520.61 599.51L520.22 601.51L519.79 603.45L519.32 605.33L518.81 607.15L518.27 608.91L517.68 610.62L517.06 612.27L516.39 613.86L515.69 615.39L514.95 616.86L514.17 618.28L513.36 619.64L512.5 620.94L511.61 622.18L510.67 623.36L509.7 624.49L508.69 625.56L507.64 626.57L506.55 627.52L505.43 628.41L504.26 629.25L503.06 630.03L501.82 630.75L500.54 631.41L499.22 632.01L497.86 632.56L496.46 633.05L495.03 633.48L493.56 633.85L492.04 634.16L490.49 634.42L488.9 634.61L487.28 634.75L168.44 634.75L166.82 634.61L165.23 634.42L163.68 634.16L162.16 633.85L160.69 633.48L159.26 633.05L157.86 632.56L156.5 632.01L155.18 631.41L153.9 630.75L152.66 630.03L151.46 629.25L150.29 628.41L149.17 627.52L148.08 626.57L147.03 625.56L146.02 624.49L145.05 623.36L144.11 622.18L143.22 620.94L142.36 619.64L141.55 618.28L140.77 616.86L140.03 615.39L139.33 613.86L138.66 612.27L138.04 610.62L137.45 608.91L136.91 607.15L136.4 605.33L135.93 603.45L135.5 601.51L135.11 599.51L134.75 597.46L134.44 595.34L134.16 593.17L133.92 590.95L133.72 588.66L133.56 586.31L133.44 583.91L133.32 581.29L133.17 578.3L132.99 574.94L132.78 571.2L132.54 567.09L132.27 562.61L131.96 557.75L131.63 552.52L131.26 546.92L130.87 540.94L130.44 534.6L129.98 527.87L129.49 520.78L128.97 513.31L128.42 505.47L127.84 497.26L127.23 488.67L126.58 479.71L125.91 470.38L125.2 460.67L124.47 450.6L123.7 440.14L122.9 429.32L122.07 418.12L121.21 406.55L120.32 394.61L119.4 382.29L118.45 369.6L117.47 356.54L116.45 343.1L115.41 329.29L114.33 315.11L113.22 300.56L112.09 285.63L110.92 270.33L109.72 254.65L108.49 238.61L107.23 222.19L105.93 205.39L104.61 188.23L551.11 188.23L549.79 205.39ZM223.24 549.99L254.13 549.99L239.72 235.56L208.83 235.56L223.24 549.99ZM405.96 549.99L436.85 549.99L451.27 235.56L420.38 235.56L405.96 549.99ZM315.57 549.99L348.51 549.99L348.51 235.56L315.57 235.56L315.57 549.99Z" id="d96G9o9ubl"></path><path d="M204.23 140.44L204.23 101.64L204.23 101.15L204.24 100.66L204.25 100.17L204.27 99.68L204.29 99.19L204.32 98.7L204.35 98.21L204.38 97.73L204.43 97.24L204.47 96.76L204.52 96.27L204.58 95.78L204.64 95.3L204.7 94.82L204.77 94.33L204.85 93.85L204.93 93.37L205.01 92.89L205.1 92.41L205.2 91.93L205.29 91.46L205.4 90.98L205.51 90.5L205.62 90.03L205.74 89.56L205.86 89.09L205.99 88.61L206.12 88.14L206.25 87.68L206.4 87.21L206.54 86.74L206.69 86.28L206.85 85.82L207.01 85.35L207.17 84.89L207.34 84.43L207.51 83.98L207.69 83.52L207.87 83.07L208.06 82.61L208.81 80.89L209.58 79.22L210.38 77.58L211.21 76L212.07 74.45L212.96 72.96L213.87 71.5L214.81 70.1L215.78 68.73L216.78 67.41L217.81 66.14L218.86 64.91L219.94 63.73L221.05 62.59L222.19 61.49L223.35 60.44L224.55 59.44L225.77 58.48L227.02 57.56L228.29 56.69L229.6 55.87L230.93 55.09L232.29 54.35L233.68 53.66L235.09 53.02L236.54 52.41L238.01 51.86L239.51 51.35L241.04 50.88L242.59 50.46L244.18 50.08L245.79 49.75L247.43 49.46L249.09 49.22L250.79 49.02L252.51 48.87L254.26 48.76L256.04 48.7L257.85 48.68L259.68 48.7L261.86 48.76L264.1 48.81L266.39 48.86L268.73 48.91L271.13 48.96L273.59 49.01L276.1 49.05L278.67 49.09L281.3 49.13L283.97 49.17L286.71 49.21L289.5 49.24L292.34 49.27L295.25 49.3L298.2 49.33L301.21 49.36L304.28 49.38L307.4 49.4L310.58 49.42L313.82 49.44L317.11 49.46L320.45 49.47L323.85 49.48L327.31 49.49L327.86 49.49L328.41 49.49L331.87 49.48L335.27 49.47L338.61 49.46L341.9 49.44L345.14 49.42L348.32 49.4L351.44 49.38L354.51 49.36L357.52 49.33L360.48 49.3L363.38 49.27L366.22 49.24L369.01 49.21L371.75 49.17L374.43 49.13L377.05 49.09L379.62 49.05L382.13 49.01L384.59 48.96L386.99 48.91L389.33 48.86L391.62 48.81L393.86 48.76L396.04 48.7L397.87 48.68L399.68 48.7L401.46 48.76L403.21 48.87L404.93 49.02L406.63 49.22L408.29 49.46L409.93 49.75L411.54 50.08L413.13 50.46L414.68 50.88L416.21 51.35L417.71 51.86L419.18 52.41L420.63 53.02L422.04 53.66L423.43 54.35L424.79 55.09L426.12 55.87L427.43 56.69L428.7 57.56L429.95 58.48L431.17 59.44L432.37 60.44L433.53 61.49L434.67 62.59L435.78 63.73L436.86 64.91L437.91 66.14L438.94 67.41L439.94 68.73L440.91 70.1L441.85 71.5L442.76 72.96L443.65 74.45L444.51 76L445.34 77.58L446.14 79.22L446.91 80.89L447.66 82.61L447.85 83.07L448.03 83.52L448.21 83.98L448.38 84.43L448.55 84.89L448.71 85.35L448.87 85.82L449.03 86.28L449.18 86.74L449.33 87.21L449.47 87.68L449.6 88.14L449.73 88.61L449.86 89.09L449.98 89.56L450.1 90.03L450.21 90.5L450.32 90.98L450.43 91.46L450.52 91.93L450.62 92.41L450.71 92.89L450.79 93.37L450.87 93.85L450.95 94.33L451.02 94.82L451.08 95.3L451.14 95.78L451.2 96.27L451.25 96.76L451.29 97.24L451.34 97.73L451.37 98.21L451.4 98.7L451.43 99.19L451.45 99.68L451.47 100.17L451.48 100.66L451.49 101.15L451.49 101.64L451.49 140.44L582.91 140.44L582.91 188.23L72.81 188.23L72.81 140.44L204.23 140.44ZM257.65 80.49L256.66 80.58L255.69 80.7L254.74 80.86L253.81 81.04L252.89 81.26L252 81.51L251.13 81.79L250.28 82.09L249.45 82.42L248.64 82.78L247.85 83.16L247.09 83.56L246.35 83.99L245.63 84.43L244.94 84.9L244.27 85.39L243.63 85.89L243.01 86.41L242.42 86.95L241.86 87.5L241.32 88.06L240.81 88.64L240.32 89.23L239.87 89.83L239.44 90.44L239.04 91.06L238.67 91.68L238.33 92.31L238.02 92.95L237.75 93.59L237.5 94.23L237.29 94.88L237.1 95.52L236.95 96.17L236.83 96.81L236.75 97.46L236.7 98.1L236.68 98.73L236.68 99.15L236.69 99.56L236.69 99.97L236.69 100.38L236.69 100.78L236.69 101.18L236.7 101.57L236.7 101.96L236.71 102.35L236.71 102.73L236.72 103.1L236.72 103.47L236.73 103.84L236.73 104.21L236.74 104.56L236.75 104.92L236.75 105.27L236.76 105.61L236.77 105.96L236.78 106.29L236.79 106.62L236.8 106.95L236.81 107.28L236.82 107.6L236.83 107.91L236.84 108.22L236.85 108.53L236.86 108.83L236.87 109.13L236.88 109.42L236.9 109.71L236.91 110L236.92 110.28L236.94 110.56L236.95 110.83L236.97 111.1L236.98 111.36L237 111.62L237.01 111.87L237.03 112.12L237.03 140.44L418.69 140.44L418.69 112.12L418.71 111.87L418.72 111.62L418.74 111.36L418.75 111.1L418.77 110.83L418.78 110.56L418.8 110.28L418.81 110L418.82 109.71L418.84 109.42L418.85 109.13L418.86 108.83L418.87 108.53L418.88 108.22L418.89 107.91L418.9 107.6L418.91 107.28L418.92 106.95L418.93 106.62L418.94 106.29L418.95 105.96L418.96 105.61L418.97 105.27L418.97 104.92L418.98 104.56L418.99 104.21L418.99 103.84L419 103.47L419 103.1L419.01 102.73L419.01 102.35L419.02 101.96L419.02 101.57L419.03 101.18L419.03 100.78L419.03 100.38L419.03 99.97L419.04 99.56L419.04 99.15L419.04 98.73L419.02 98.1L418.97 97.46L418.89 96.81L418.77 96.17L418.62 95.52L418.44 94.88L418.22 94.23L417.97 93.59L417.7 92.95L417.39 92.31L417.05 91.68L416.68 91.06L416.28 90.44L415.85 89.83L415.4 89.23L414.92 88.64L414.4 88.06L413.87 87.5L413.3 86.95L412.71 86.41L412.09 85.89L411.45 85.39L410.78 84.9L410.09 84.43L409.37 83.99L408.63 83.56L407.87 83.16L407.08 82.78L406.27 82.42L405.44 82.09L404.59 81.79L403.72 81.51L402.83 81.26L401.91 81.04L400.98 80.86L400.03 80.7L399.06 80.58L398.07 80.49L397.06 80.43L396.04 80.41L259.68 80.41L258.66 80.43L257.65 80.49Z" id="a2JEANgyqM"></path></defs><g><g><g><use xlink:href="#d96G9o9ubl" opacity="1" class="trashbin-body" fill-opacity="1"></use><g><use xlink:href="#d96G9o9ubl" opacity="1" fill-opacity="0"></use></g></g><g><use xlink:href="#a2JEANgyqM" opacity="1" class="trashbin-body" fill-opacity="1"></use><g><use xlink:href="#a2JEANgyqM" opacity="1" fill-opacity="0"></use></g></g></g></g></svg>
