<?xml version="1.0" encoding="UTF-8" standalone="no"?>
<!DOCTYPE svg PUBLIC "-//W3C//DTD SVG 1.1//EN" "http://www.w3.org/Graphics/SVG/1.1/DTD/svg11.dtd">
<svg version="1.1" xmlns="http://www.w3.org/2000/svg" xmlns:xlink="http://www.w3.org/1999/xlink" preserveAspectRatio="xMidYMid meet" viewBox="0 0 640 640" width="640" height="640"><defs><path d="M549.79 205.39L548.49 222.19L547.23 238.61L546 254.65L544.8 270.33L543.63 285.63L542.5 300.56L541.39 315.11L540.31 329.29L539.27 343.1L538.26 356.54L537.27 369.6L536.32 382.29L535.4 394.61L534.51 406.55L533.65 418.12L532.82 429.32L532.02 440.14L531.25 450.6L530.52 460.67L529.81 470.38L529.14 479.71L528.49 488.67L527.88 497.26L527.3 505.47L526.75 513.31L526.23 520.78L525.74 527.87L525.28 534.6L524.86 540.94L524.46 546.92L524.09 552.52L523.76 557.75L523.45 562.61L523.18 567.09L522.94 571.2L522.73 574.94L522.55 578.3L522.4 581.29L522.28 583.91L522.16 586.31L522 588.66L521.8 590.95L521.56 593.17L521.28 595.34L520.97 597.46L520.61 599.51L520.22 601.51L519.79 603.45L519.32 605.33L518.81 607.15L518.27 608.91L517.68 610.62L517.06 612.27L516.39 613.86L515.69 615.39L514.95 616.86L514.17 618.28L513.36 619.64L512.5 620.94L511.61 622.18L510.67 623.36L509.7 624.49L508.69 625.56L507.64 626.57L506.55 627.52L505.43 628.41L504.26 629.25L503.06 630.03L501.82 630.75L500.54 631.41L499.22 632.01L497.86 632.56L496.46 633.05L495.03 633.48L493.56 633.85L492.04 634.16L490.49 634.42L488.9 634.61L487.28 634.75L168.44 634.75L166.82 634.61L165.23 634.42L163.68 634.16L162.16 633.85L160.69 633.48L159.26 633.05L157.86 632.56L156.5 632.01L155.18 631.41L153.9 630.75L152.66 630.03L151.46 629.25L150.29 628.41L149.17 627.52L148.08 626.57L147.03 625.56L146.02 624.49L145.05 623.36L144.11 622.18L143.22 620.94L142.36 619.64L141.55 618.28L140.77 616.86L140.03 615.39L139.33 613.86L138.66 612.27L138.04 610.62L137.45 608.91L136.91 607.15L136.4 605.33L135.93 603.45L135.5 601.51L135.11 599.51L134.75 597.46L134.44 595.34L134.16 593.17L133.92 590.95L133.72 588.66L133.56 586.31L133.44 583.91L133.32 581.29L133.17 578.3L132.99 574.94L132.78 571.2L132.54 567.09L132.27 562.61L131.96 557.75L131.63 552.52L131.26 546.92L130.87 540.94L130.44 534.6L129.98 527.87L129.49 520.78L128.97 513.31L128.42 505.47L127.84 497.26L127.23 488.67L126.58 479.71L125.91 470.38L125.2 460.67L124.47 450.6L123.7 440.14L122.9 429.32L122.07 418.12L121.21 406.55L120.32 394.61L119.4 382.29L118.45 369.6L117.47 356.54L116.45 343.1L115.41 329.29L114.33 315.11L113.22 300.56L112.09 285.63L110.92 270.33L109.72 254.65L108.49 238.61L107.23 222.19L105.93 205.39L104.61 188.23L551.11 188.23L549.79 205.39ZM223.24 549.99L254.13 549.99L239.72 235.56L208.83 235.56L223.24 549.99ZM405.96 549.99L436.85 549.99L451.27 235.56L420.38 235.56L405.96 549.99ZM315.57 549.99L348.51 549.99L348.51 235.56L315.57 235.56L315.57 549.99Z" id="d96G9o9ubl"></path><path d="M280.68 5.35L282.41 5.48L284.15 5.67L285.92 5.9L287.7 6.18L289.51 6.52L291.65 6.93L293.84 7.36L296.09 7.79L298.4 8.23L300.76 8.68L303.17 9.13L305.64 9.59L308.17 10.06L310.75 10.53L313.38 11.02L316.07 11.51L318.82 12L321.62 12.51L324.47 13.02L327.39 13.54L330.35 14.07L333.37 14.6L336.45 15.14L339.58 15.69L342.76 16.25L346.01 16.81L349.3 17.38L352.65 17.96L356.06 18.54L356.6 18.64L357.15 18.73L360.56 19.29L363.91 19.84L367.21 20.39L370.46 20.92L373.65 21.44L376.79 21.95L379.87 22.45L382.9 22.93L385.88 23.41L388.8 23.87L391.66 24.32L394.47 24.77L397.23 25.2L399.93 25.62L402.58 26.03L405.17 26.42L407.71 26.81L410.2 27.18L412.63 27.55L415 27.9L417.33 28.24L419.59 28.57L421.81 28.89L423.96 29.2L425.78 29.48L427.56 29.8L429.3 30.15L431.01 30.55L432.68 30.99L434.32 31.47L435.92 31.98L437.49 32.54L439.02 33.13L440.52 33.77L441.99 34.44L443.42 35.16L444.81 35.91L446.17 36.71L447.49 37.54L448.78 38.41L450.03 39.32L451.25 40.28L452.44 41.27L453.59 42.3L454.7 43.37L455.78 44.48L456.82 45.63L457.83 46.82L458.81 48.05L459.75 49.31L460.65 50.62L461.52 51.97L462.35 53.36L463.15 54.78L463.92 56.25L464.65 57.75L465.34 59.3L466 60.88L466.63 62.51L467.22 64.17L467.77 65.88L468.29 67.62L468.77 69.4L469.22 71.22L469.33 71.7L469.44 72.18L469.54 72.66L469.63 73.14L469.72 73.62L469.81 74.1L469.89 74.58L469.97 75.06L470.04 75.55L470.1 76.03L470.16 76.51L470.22 77L470.27 77.48L470.32 77.97L470.36 78.46L470.4 78.94L470.43 79.43L470.46 79.92L470.48 80.4L470.5 80.89L470.51 81.38L470.52 81.86L470.52 82.35L470.52 82.84L470.52 83.33L470.5 83.81L470.49 84.3L470.47 84.79L470.44 85.28L470.41 85.76L470.38 86.25L470.34 86.74L470.29 87.22L470.24 87.71L470.19 88.19L470.13 88.68L470.06 89.17L469.99 89.65L469.92 90.13L469.84 90.62L463.39 128.88L592.97 150.74L585.02 197.86L305.68 150.74L82.03 113.01L89.98 65.89L219.57 87.75L226.02 49.49L226.1 49L226.19 48.52L226.29 48.04L226.38 47.56L226.49 47.09L226.6 46.61L226.71 46.13L226.82 45.66L226.95 45.19L227.07 44.71L227.2 44.24L227.34 43.78L227.48 43.31L227.62 42.84L227.77 42.38L227.93 41.92L228.09 41.45L228.25 41L228.42 40.54L228.59 40.08L228.77 39.63L228.95 39.17L229.13 38.72L229.32 38.27L229.52 37.83L229.72 37.38L229.92 36.94L230.13 36.5L230.34 36.06L230.56 35.62L230.78 35.19L231 34.75L231.23 34.32L231.47 33.89L231.71 33.47L231.95 33.04L232.2 32.62L232.45 32.2L232.7 31.78L232.96 31.37L233.99 29.79L235.03 28.27L236.09 26.79L237.17 25.37L238.28 23.99L239.4 22.66L240.54 21.38L241.71 20.15L242.89 18.96L244.09 17.83L245.31 16.74L246.56 15.71L247.82 14.72L249.1 13.78L250.41 12.89L251.73 12.05L253.07 11.26L254.44 10.51L255.82 9.82L257.22 9.17L258.65 8.58L260.09 8.03L261.56 7.53L263.04 7.08L264.54 6.68L266.07 6.33L267.61 6.02L269.17 5.77L270.76 5.56L272.36 5.4L273.99 5.29L275.63 5.24L277.3 5.22L278.98 5.26L280.68 5.35ZM277.4 37.49L276.47 37.59L275.57 37.72L274.68 37.87L273.8 38.06L272.95 38.28L272.11 38.52L271.29 38.79L270.49 39.09L269.71 39.41L268.95 39.76L268.21 40.13L267.49 40.52L266.8 40.93L266.12 41.36L265.47 41.81L264.85 42.27L264.25 42.76L263.67 43.26L263.13 43.77L262.6 44.3L262.11 44.85L261.64 45.4L261.2 45.97L260.79 46.54L260.41 47.13L260.06 47.72L259.74 48.32L259.45 48.93L259.2 49.54L258.97 50.16L258.78 50.78L258.63 51.4L258.51 52.02L258.44 52.43L258.37 52.84L258.3 53.25L258.24 53.65L258.17 54.05L258.11 54.44L258.05 54.83L257.99 55.21L257.93 55.59L257.87 55.97L257.81 56.34L257.75 56.71L257.7 57.07L257.64 57.43L257.59 57.78L257.54 58.13L257.49 58.48L257.44 58.82L257.39 59.16L257.34 59.49L257.3 59.82L257.25 60.15L257.21 60.47L257.16 60.79L257.12 61.1L257.08 61.41L257.04 61.71L257 62.01L256.96 62.31L256.93 62.6L256.89 62.89L256.86 63.17L256.82 63.45L256.79 63.72L256.76 64L256.73 64.26L256.7 64.52L256.67 64.78L256.65 65.04L256.62 65.29L251.91 93.21L301.5 101.57L301.5 101.57L431.04 123.42L435.75 95.5L435.81 95.26L435.87 95.01L435.92 94.76L435.98 94.5L436.04 94.24L436.1 93.97L436.16 93.7L436.22 93.43L436.28 93.15L436.34 92.87L436.4 92.58L436.47 92.29L436.53 91.99L436.59 91.69L436.65 91.38L436.71 91.07L436.78 90.76L436.84 90.44L436.9 90.12L436.97 89.79L437.03 89.46L437.1 89.13L437.16 88.79L437.23 88.44L437.29 88.1L437.36 87.74L437.43 87.39L437.49 87.03L437.56 86.66L437.63 86.29L437.7 85.92L437.76 85.54L437.83 85.15L437.9 84.77L437.97 84.38L438.04 83.98L438.11 83.58L438.18 83.18L438.25 82.77L438.32 82.35L438.41 81.72L438.47 81.09L438.49 80.44L438.48 79.78L438.44 79.12L438.37 78.45L438.26 77.78L438.13 77.11L437.96 76.43L437.76 75.75L437.53 75.07L437.27 74.4L436.98 73.72L436.66 73.05L436.31 72.38L435.93 71.72L435.53 71.07L435.09 70.42L434.62 69.78L434.13 69.15L433.61 68.54L433.06 67.93L432.48 67.34L431.87 66.77L431.24 66.21L430.58 65.66L429.9 65.14L429.19 64.63L428.45 64.15L427.68 63.68L426.9 63.24L426.08 62.82L425.24 62.43L424.38 62.06L423.49 61.72L422.58 61.41L421.64 61.13L420.68 60.88L419.7 60.65L418.69 60.47L342.2 47.56L337.78 46.82L330.91 45.66L330.73 45.63L326.1 44.85L325.31 44.71L314.22 42.84L284.23 37.78L283.22 37.63L282.22 37.52L281.23 37.44L280.25 37.4L279.28 37.4L278.33 37.43L277.4 37.49Z" id="b6W7VihMr"></path></defs><g><g><g><use xlink:href="#d96G9o9ubl" opacity="1" class="trashbin-body" fill-opacity="1"></use><g><use xlink:href="#d96G9o9ubl" opacity="1" fill-opacity="0"></use></g></g><g><use xlink:href="#b6W7VihMr" opacity="1" class="trashbin-body" fill-opacity="1"></use><g><use xlink:href="#b6W7VihMr" opacity="1" fill-opacity="0"></use></g></g></g></g></svg>
