<?xml version="1.0" encoding="UTF-8" standalone="no"?>
<!DOCTYPE svg PUBLIC "-//W3C//DTD SVG 1.1//EN" "http://www.w3.org/Graphics/SVG/1.1/DTD/svg11.dtd">
<svg version="1.1" xmlns="http://www.w3.org/2000/svg" xmlns:xlink="http://www.w3.org/1999/xlink" preserveAspectRatio="xMidYMid meet" viewBox="0 0 703 651" width="703" height="651"><defs><path d="M527.79 205.39L526.49 222.19L525.23 238.61L524 254.65L522.8 270.33L521.63 285.63L520.5 300.56L519.39 315.11L518.31 329.29L517.27 343.1L516.26 356.54L515.27 369.6L514.32 382.29L513.4 394.61L512.51 406.55L511.65 418.12L510.82 429.32L510.02 440.14L509.25 450.6L508.52 460.67L507.81 470.38L507.14 479.71L506.49 488.67L505.88 497.26L505.3 505.47L504.75 513.31L504.23 520.78L503.74 527.87L503.28 534.6L502.86 540.94L502.46 546.92L502.09 552.52L501.76 557.75L501.45 562.61L501.18 567.09L500.94 571.2L500.73 574.94L500.55 578.3L500.4 581.29L500.28 583.91L500.16 586.31L500 588.66L499.8 590.95L499.56 593.17L499.28 595.34L498.97 597.46L498.61 599.51L498.22 601.51L497.79 603.45L497.32 605.33L496.81 607.15L496.27 608.91L495.68 610.62L495.06 612.27L494.39 613.86L493.69 615.39L492.95 616.86L492.17 618.28L491.36 619.64L490.5 620.94L489.61 622.18L488.67 623.36L487.7 624.49L486.69 625.56L485.64 626.57L484.55 627.52L483.43 628.41L482.26 629.25L481.06 630.03L479.82 630.75L478.54 631.41L477.22 632.01L475.86 632.56L474.46 633.05L473.03 633.48L471.56 633.85L470.04 634.16L468.49 634.42L466.9 634.61L465.28 634.75L146.44 634.75L144.82 634.61L143.23 634.42L141.68 634.16L140.16 633.85L138.69 633.48L137.26 633.05L135.86 632.56L134.5 632.01L133.18 631.41L131.9 630.75L130.66 630.03L129.46 629.25L128.29 628.41L127.17 627.52L126.08 626.57L125.03 625.56L124.02 624.49L123.05 623.36L122.11 622.18L121.22 620.94L120.36 619.64L119.55 618.28L118.77 616.86L118.03 615.39L117.33 613.86L116.66 612.27L116.04 610.62L115.45 608.91L114.91 607.15L114.4 605.33L113.93 603.45L113.5 601.51L113.11 599.51L112.75 597.46L112.44 595.34L112.16 593.17L111.92 590.95L111.72 588.66L111.56 586.31L111.44 583.91L111.32 581.29L111.17 578.3L110.99 574.94L110.78 571.2L110.54 567.09L110.27 562.61L109.96 557.75L109.63 552.52L109.26 546.92L108.87 540.94L108.44 534.6L107.98 527.87L107.49 520.78L106.97 513.31L106.42 505.47L105.84 497.26L105.23 488.67L104.58 479.71L103.91 470.38L103.2 460.67L102.47 450.6L101.7 440.14L100.9 429.32L100.07 418.12L99.21 406.55L98.32 394.61L97.4 382.29L96.45 369.6L95.47 356.54L94.45 343.1L93.41 329.29L92.33 315.11L91.22 300.56L90.09 285.63L88.92 270.33L87.72 254.65L86.49 238.61L85.23 222.19L83.93 205.39L82.61 188.23L529.11 188.23L527.79 205.39ZM201.24 549.99L232.13 549.99L217.72 235.56L186.83 235.56L201.24 549.99ZM383.96 549.99L414.85 549.99L429.27 235.56L398.38 235.56L383.96 549.99ZM293.57 549.99L326.51 549.99L326.51 235.56L293.57 235.56L293.57 549.99Z" id="a2zSwrHOtJ"></path><path d="M258.82 7.49L260.54 7.61L262.29 7.78L264.06 8L265.84 8.26L267.65 8.57L269.79 8.97L271.99 9.37L274.25 9.78L276.56 10.2L278.92 10.63L281.34 11.06L283.82 11.49L286.35 11.94L288.93 12.39L291.57 12.84L294.27 13.31L297.02 13.78L299.82 14.26L302.68 14.74L305.6 15.23L308.57 15.73L311.59 16.23L314.67 16.75L317.81 17.26L321 17.79L324.25 18.32L327.55 18.86L330.91 19.4L334.32 19.95L334.86 20.04L335.41 20.13L338.82 20.66L342.18 21.18L345.49 21.69L348.74 22.19L351.94 22.68L355.08 23.16L358.17 23.63L361.2 24.08L364.18 24.53L367.1 24.97L369.97 25.39L372.79 25.81L375.55 26.21L378.26 26.6L380.91 26.99L383.51 27.36L386.05 27.72L388.54 28.07L390.97 28.41L393.35 28.74L395.67 29.06L397.94 29.37L400.16 29.66L402.32 29.95L404.14 30.21L405.92 30.51L407.67 30.85L409.38 31.24L411.06 31.66L412.7 32.12L414.31 32.62L415.88 33.16L417.42 33.74L418.93 34.36L420.4 35.02L421.83 35.72L423.23 36.46L424.6 37.24L425.93 38.06L427.23 38.92L428.49 39.82L429.72 40.76L430.91 41.74L432.07 42.76L433.19 43.82L434.28 44.92L435.34 46.06L436.36 47.24L437.35 48.46L438.3 49.72L439.22 51.02L440.1 52.36L440.95 53.74L441.76 55.15L442.54 56.61L443.28 58.11L443.99 59.65L444.67 61.23L445.31 62.85L445.91 64.5L446.48 66.2L447.02 67.94L447.52 69.72L447.99 71.53L448.1 72.01L448.21 72.49L448.32 72.97L448.42 73.44L448.51 73.92L448.6 74.4L448.69 74.89L448.77 75.37L448.84 75.85L448.91 76.33L448.98 76.82L449.04 77.3L449.1 77.79L449.15 78.27L449.2 78.76L449.24 79.24L449.27 79.73L449.31 80.21L449.33 80.7L449.36 81.19L449.37 81.67L449.39 82.16L449.4 82.65L449.4 83.14L449.4 83.62L449.39 84.11L449.38 84.6L449.36 85.09L449.34 85.58L449.32 86.06L449.29 86.55L449.25 87.04L449.21 87.52L449.16 88.01L449.11 88.5L449.06 88.98L449 89.47L448.94 89.95L448.87 90.44L448.79 90.92L442.71 129.24L572.5 149.84L565.01 197.04L353.16 163.42L353.16 163.42L61.22 117.08L68.71 69.88L198.5 90.48L204.59 52.16L204.66 51.68L204.75 51.19L204.84 50.71L204.93 50.23L205.03 49.75L205.13 49.28L205.24 48.8L205.35 48.32L205.47 47.85L205.59 47.38L205.72 46.91L205.85 46.44L205.98 45.97L206.12 45.5L206.27 45.04L206.42 44.57L206.57 44.11L206.73 43.65L206.89 43.19L207.06 42.73L207.23 42.27L207.41 41.82L207.59 41.37L207.78 40.92L207.97 40.47L208.16 40.02L208.36 39.58L208.57 39.13L208.77 38.69L208.99 38.25L209.2 37.81L209.42 37.38L209.65 36.95L209.88 36.51L210.12 36.09L210.35 35.66L210.6 35.23L210.84 34.81L211.1 34.39L211.35 33.98L212.36 32.39L213.39 30.86L214.44 29.37L215.5 27.93L216.59 26.54L217.7 25.2L218.83 23.91L219.98 22.67L221.16 21.47L222.35 20.33L223.56 19.23L224.79 18.18L226.05 17.18L227.32 16.23L228.62 15.33L229.93 14.48L231.27 13.67L232.62 12.91L234 12.21L235.4 11.55L236.81 10.94L238.25 10.37L239.71 9.86L241.19 9.4L242.69 8.98L244.21 8.61L245.75 8.29L247.31 8.02L248.89 7.8L250.5 7.63L252.12 7.5L253.76 7.43L255.43 7.4L257.11 7.42L258.82 7.49ZM414.81 95.89L414.86 95.64L414.92 95.39L414.97 95.13L415.03 94.87L415.09 94.6L415.15 94.33L415.2 94.06L415.26 93.78L415.32 93.49L415.38 93.21L415.44 92.91L415.49 92.62L415.55 92.32L415.61 92.01L415.67 91.7L415.73 91.39L415.79 91.07L415.85 90.74L415.91 90.42L415.98 90.09L416.04 89.75L416.1 89.41L416.16 89.07L416.22 88.72L416.29 88.36L416.35 88.01L416.41 87.64L416.48 87.28L416.54 86.91L416.6 86.53L416.67 86.15L416.73 85.77L416.8 85.38L416.86 84.99L416.93 84.59L416.99 84.19L417.06 83.79L417.13 83.38L417.19 82.96L417.28 82.33L417.33 81.7L417.35 81.05L417.33 80.39L417.28 79.73L417.2 79.06L417.09 78.39L416.95 77.72L416.78 77.04L416.57 76.37L416.33 75.69L416.07 75.02L415.77 74.34L415.45 73.68L415.09 73.01L414.7 72.35L414.29 71.7L413.85 71.06L413.37 70.43L412.87 69.81L412.35 69.19L411.79 68.6L411.21 68.01L410.6 67.44L409.96 66.89L409.29 66.35L408.6 65.83L407.89 65.33L407.15 64.86L406.38 64.4L405.58 63.97L404.77 63.56L403.92 63.17L403.06 62.81L402.16 62.48L401.25 62.18L400.31 61.9L399.35 61.66L398.36 61.45L397.35 61.27L370.06 56.94L369.19 56.8L368.01 56.61L358.83 55.15L356.55 54.79L353.94 54.38L350 53.75L346.08 53.13L342.16 52.51L339.96 52.16L338.27 51.89L324.81 49.75L324.58 49.72L323 49.47L321.8 49.28L308.97 47.24L308.52 47.17L301.71 46.09L300.95 45.97L298.43 45.57L298.01 45.5L262.68 39.89L261.67 39.75L260.66 39.65L259.67 39.58L258.69 39.55L257.73 39.55L256.78 39.59L255.84 39.67L254.92 39.77L254.02 39.91L253.13 40.08L252.26 40.27L251.4 40.5L250.57 40.75L249.75 41.03L248.95 41.33L248.17 41.66L247.42 42.01L246.68 42.39L245.97 42.79L245.28 43.2L244.61 43.64L243.96 44.1L243.34 44.57L242.75 45.06L242.18 45.57L241.63 46.09L241.12 46.62L240.63 47.17L240.16 47.73L239.73 48.3L239.33 48.88L238.95 49.47L238.61 50.06L238.29 50.67L238.01 51.28L237.76 51.89L237.54 52.51L237.36 53.13L237.21 53.75L237.09 54.38L237.03 54.79L236.97 55.2L236.9 55.61L236.84 56.01L236.78 56.41L236.72 56.8L236.66 57.19L236.61 57.57L236.55 57.95L236.49 58.33L236.44 58.7L236.39 59.07L236.34 59.43L236.28 59.79L236.24 60.15L236.19 60.5L236.14 60.85L236.09 61.19L236.05 61.53L236 61.86L235.96 62.19L235.92 62.52L235.88 62.84L235.84 63.16L235.8 63.47L235.76 63.78L235.72 64.08L235.69 64.38L235.65 64.68L235.62 64.97L235.58 65.26L235.55 65.54L235.52 65.82L235.49 66.1L235.46 66.37L235.44 66.64L235.41 66.9L235.39 67.16L235.36 67.41L235.34 67.66L230.9 95.63L280.56 103.51L280.56 103.51L360.65 116.22L410.31 124.1L414.75 96.14L414.81 95.89Z" id="b4n1Ili7E"></path></defs><g><g><g><use xlink:href="#a2zSwrHOtJ" opacity="1" class="trashbin-body" fill-opacity="1"></use><g><use xlink:href="#a2zSwrHOtJ" opacity="1" fill-opacity="0" stroke="#000000" stroke-width="0" stroke-opacity="1"></use></g></g><g><use xlink:href="#b4n1Ili7E" opacity="1" class="trashbin-body" fill-opacity="1"></use><g><use xlink:href="#b4n1Ili7E" opacity="1" fill-opacity="0" stroke="#ff0000" stroke-width="0" stroke-opacity="1"></use></g></g></g></g></svg>
