<svg xmlns="http://www.w3.org/2000/svg" xmlns:xlink="http://www.w3.org/1999/xlink" preserveAspectRatio="xMidYMid slice" viewBox="0 0 703 651">
  <defs>
    <path d="M527.8 205.4l-1.3 16.8-1.3 16.4-1.2 16-1.2 15.7-1.2 15.3-1.1 15-1.1 14.5-1 14.2-1.1 13.8-1 13.4-1 13.1-1 12.7-.9 12.3-.9 12-.9 11.5-.8 11.2-.8 10.8-.8 10.5-.7 10-.7 9.8-.7 9.3-.6 9-.6 8.6-.6 8.2-.6 7.8-.5 7.5-.5 7-.4 6.8-.4 6.3-.4 6-.4 5.6-.3 5.3-.4 4.8-.2 4.5-.3 4.1-.2 3.7-.1 3.4-.2 3-.1 2.6-.1 2.4-.2 2.4-.2 2.3-.2 2.2-.3 2.1-.3 2.2-.4 2-.4 2-.4 2-.5 1.8-.5 1.9-.5 1.7-.6 1.7-.6 1.7-.7 1.6-.7 1.5-.8 1.5-.7 1.4-.8 1.3-.9 1.3-.9 1.3-1 1.2-.9 1-1 1.2-1 1-1.1 1-1.2.8-1.1.9-1.2.7-1.3.8-1.3.6-1.3.6-1.3.6-1.4.4-1.5.5-1.4.4-1.6.3-1.5.2-1.6.2-1.6.1H144.8l-1.6-.3-1.5-.2-1.5-.4-1.5-.3-1.4-.5-1.4-.4-1.4-.6-1.3-.6-1.3-.6-1.2-.8-1.2-.8-1.2-.8-1.1-.9-1.1-1-1-1-1-1-1-1.1-1-1.2-.9-1.3-.8-1.3-.9-1.3-.7-1.4-.8-1.5-.7-1.5-.6-1.6-.7-1.7-.5-1.7-.6-1.8-.5-1.8-.5-1.8-.4-2-.4-2-.3-2-.4-2.2-.2-2.1-.3-2.3-.2-2.2-.1-2.4-.2-2.4v-2.6l-.2-3-.2-3.4-.2-3.7-.3-4.1-.2-4.5-.3-4.9-.4-5.2-.3-5.6-.4-6-.5-6.3-.4-6.7-.5-7.1-.5-7.5-.6-7.8-.6-8.2-.6-8.6-.6-9-.7-9.3-.7-9.7-.7-10.1-.8-10.5-.8-10.8-.8-11.2-.9-11.6-.9-11.9-.9-12.3-1-12.7-1-13-1-13.5-1-13.8-1-14.2-1.2-14.5-1.1-15-1.2-15.3-1.2-15.7-1.2-16-1.3-16.4-1.3-16.8-1.3-17.2h446.5l-1.3 17.2zM201.2 550h31l-14.5-314.4h-30.9L201.2 550zm182.8 0h30.9l14.4-314.4h-31L384 550zm-90.4 0h33V235.6h-33V550z" id="a"/>
    <path d="M612.5 248h1l.5-.1h.5l.5-.1h1l.4-.1h6.4l.5.1h.5l.4.1h.5l.5.1h.5l.5.2h.4l.5.1h.5l.5.2h.5l.4.2h.5l.5.2.5.1.5.1.4.1.5.2 1.8.5 1.8.5 1.7.6 1.7.6 1.6.7 1.6.7 1.6.7 1.5.7 1.5.8 1.4.8 1.4.9 1.4.9 1.3.9 1.3 1 1.2 1 1.2 1 1.1 1 1.1 1 1.1 1.2 1 1.2 1 1.1 1 1.3.9 1.2.8 1.3.9 1.3.8 1.4.7 1.4.7 1.4.6 1.4.7 1.5.6 1.6.5 1.5.5 1.6.5 1.6.4 1.7.3 1.7.4 1.7.3 1.7.2 1.8.2 1.8.3 2.2.2 2.2.2 2.3.3 2.3.3 2.4.2 2.5.3 2.5.3 2.5.3 2.6.3 2.7.3 2.7.4 2.8.3 2.8.4 2.9.3 3 .4 3 .4 3 .3 3 .4 3.2.4 3.2.5 3.3.4 3.3.4 3.4.4 3.4.1.6v.5l.5 3.4.5 3.4.4 3.3.5 3.3.4 3.2.4 3.1.5 3.1.4 3 .4 3 .4 3 .4 2.8.4 2.9.4 2.7.4 2.7.4 2.7.4 2.6.4 2.5.3 2.5.4 2.4.4 2.4.3 2.3.4 2.3.3 2.2.3 2.2.3 1.8.2 1.8.2 1.7.1 1.8v1.7l.1 1.7v3.4l-.2 1.6-.2 1.6-.2 1.6-.3 1.6-.3 1.5-.3 1.6-.4 1.5-.5 1.5-.5 1.4-.5 1.5-.6 1.4-.7 1.4-.7 1.4-.7 1.3-.8 1.4-.9 1.3-.9 1.3-.9 1.3-1 1.2-1 1.2-1.1 1.2-1.1 1.2-1.2 1.2-1.2 1.1-1.3 1.1-1.3 1.1-1.4 1.1-1.4 1-1.5 1-1.5 1-1.6 1-1.6 1-.4.3-.4.2-.5.3-.4.2-.4.2-.4.2-.5.3-.4.2-.5.2-.4.2-.5.2-.4.2-.4.2-.5.2-.5.1-.4.2-.5.2-.4.2-.5.1-.4.2-.5.1-.5.2-.4.1-.5.2-.5.1-.4.2h-.5l-.5.2-.4.1-.5.1-.5.1-.5.1-.5.1-.4.1-.5.1-.5.1h-.5l-.5.2h-.5l-.4.1-38.5 5 17 130.3-47.3 6.3L548 422l-.3-2-.3-2.5v-.6l-.2-1.1-.1-.8-.3-2.3-.6-4.7-.1-.8-1.9-14-.4-3-.1-1.5-.3-1.6-.7-6v-.2l-1-7-.5-3.7-.4-3.5-.3-2.4-.2-1.1-.4-3.4-.5-3.4-.3-2.7-.5-3.7v-.2l-29-221 47.4-6.1L574 253l38.5-5zM630 462H631.9l.2-.1H633l.3-.1h.6l.3-.1h.6l.4-.1h.6l.4-.1h.6l.4-.1h.7l.4-.1h.3l.4-.1h.4l.3-.1h.4l.4-.1h.8l.4-.1.4-.1h.4l.4-.1h.4l.7-.1.6-.2.6-.1.6-.3.7-.2.6-.3.6-.3.6-.3.6-.3.6-.4.6-.4.5-.5.6-.5.5-.5.6-.5.5-.6.5-.5.5-.6.5-.7.4-.6.5-.7.4-.7.4-.7.3-.8.4-.8.3-.7.3-.8.3-.9.2-.8.3-.9.1-.9.2-.9.1-.9.1-1 .1-.9v-4l-.2-1-3.6-27.3v-.8l-1.2-8.3-.3-2.4v-.4l-.8-6-.2-1.4-.2-1.6-.8-6v-.2l-1-7-.4-3.7-.5-3.5-.3-2.4-.2-1.1-.4-3.4-.4-3.4-.4-2.7-.5-3.7v-.2l-1.2-9.4-.3-1.6-.1-1.5-.3-2v-.4l-.1-.6-.5-3.3-4-30.8-.2-1-.1-1-.3-1-.2-1-.3-.9-.3-.9-.3-.9-.4-.8-.4-.8-.4-.9-.4-.7-.5-.8-.5-.7-.5-.7-.5-.7-.5-.6-.6-.7-.5-.6-.6-.5-.6-.6-.6-.5-.6-.5-.7-.4-.6-.5-.7-.4-.6-.4-.7-.3-.6-.3-.7-.3-.7-.3-.7-.2-.6-.2-.7-.1-.7-.2h-.6l-.7-.1H619.2l-.4.1-.4.1h-.4l-.4.1h-.4l-.4.1h-.4l-.3.1h-.4l-.4.1h-.4l-.3.2h-.7l-.4.1h-.3l-.4.1h-.3l-.3.1h-.4l-.3.1h-.3l-.3.1h-.3l-.4.1h-.3l-.3.1h-.3l-.2.1h-.3l-.3.1h-.3l-.3.1h-.2l-.3.1h-.2l-.3.1h-.3l-.2.1-28 3.7 6.5 49.9.4 3.4.2 1.6 1.3 9.4v.2l.5 3.7.3 2.7.1.9 1.3 9.4.4 3.5.5 3.6 1 7 .3 3.2.4 3.1 1.6 11.8 1 8.3.4 2.7.4 2.9.3 2.2.1.8 6.5 49.8L630 462z" id="b"/>
  </defs>
  <use xlink:href="#a" class="trashbin-body"/>
  <use xlink:href="#a" fill-opacity="0" stroke="#000" stroke-width="0"/>
  <g>
    <use xlink:href="#b" class="trashbin-body"/>
    <use xlink:href="#b" fill-opacity="0" stroke="red" stroke-width="0"/>
  </g>
</svg>
