<svg height="512" viewBox="0 0 56 58" width="512" xmlns="http://www.w3.org/2000/svg"><g id="Page-1" fill="none" fill-rule="evenodd"><g id="033---Cake" fill-rule="nonzero"><path id="Shape" d="m56 28v25c0 2.76-12.54 5-28 5s-28-2.24-28-5v-26.05z" fill="#f0c419"/><path id="Shape" d="m56 42c0 2.761-12.536 5-28 5s-28-2.239-28-5v-5c0 2.761 12.536 5 28 5s28-2.239 28-5z" fill="#c03a2b"/><path id="Shape" d="m56 21v8.6c-.3712622-.1710688-.7558736-.3115355-1.15-.42-3.12-.83-4.11 2.79-6.81 3.18-1.1622864.0275039-2.2854921-.4203337-3.11-1.24-.6715477-.6332658-1.5570114-.9903076-2.48-1-1.37.16-2.01 1.59-3.1 2.28-.6348687.4400126-1.4729348.451872-2.12.03-.4609616-.3270735-.904876-.6775322-1.33-1.05-.5452947-.4661929-1.2748842-.6553225-1.9779879-.5127487-.7031038.1425738-1.30139.6009671-1.6220121 1.2427487-.86 1.46-.06 5.69-2.36 5.89-2.18.19-2.01-3.05-2.09-4.46-.00197-1.532237-.8965074-2.9228716-2.29-3.56-1.52-.51-2.55.77-3.67 1.6-.5892597.4538322-1.3368868.6503303-2.0731417.5448821-.7362549-.1054483-1.3986722-.5038966-1.8368583-1.1048821-.93-.99-1.99-2.47-3.52-2.16s-2.19 2.49-3.91 2.14c-1.49-.3-1.83-2.3-3.19-2.85-.56249109-.1982284-1.17526765-.2017501-1.74-.01-1.05.32-1.9 1.12-3.03 1.13-.91377166.0076425-1.81127321-.241856-2.59-.72v-7.55c0 2.76 56 2.76 56 0z" fill="#802d40"/><path id="Shape" d="m56 21c0 2.76-12.54 5-28 5s-28-2.24-28-5c0-1.62 4.31-3.06 11-3.97l4-.46c3.33-.31 7.05-.51 11-.55h4c3.95.04 7.67.24 11 .55l4 .46c6.69.91 11 2.35 11 3.97z" fill="#ff5364"/><rect id="Rectangle-path" fill="#5d4c72" height="10" rx="2" width="4" x="11" y="11"/><path id="Shape" d="m16.43 6.864c-.5106758.6405821-1.2600362 1.04577648-2.075677 1.1223607-.8156409.07658423-1.6273299-.18203613-2.248323-.7163607-1.3049412-1.13301978-1.4794879-3.09545499-.395-4.441 1.089-1.338 6.289-2.829 6.289-2.829s-.484 5.526-1.57 6.864z" fill="#f0c419"/><rect id="Rectangle-path" fill="#5d4c72" height="10" rx="2" width="4" x="41" y="11"/><path id="Shape" d="m46.43 6.864c-.5106758.6405821-1.2600362 1.04577648-2.075677 1.1223607-.8156409.07658423-1.6273299-.18203613-2.248323-.7163607-1.3064964-1.13159278-1.4832646-3.09416191-.4-4.441 1.094-1.338 6.294-2.829 6.294-2.829s-.484 5.526-1.57 6.864z" fill="#f0c419"/><rect id="Rectangle-path" fill="#894b9d" height="10" rx="2" width="4" x="26" y="12"/><path id="Shape" d="m31.43 7.864c-.5106758.6405821-1.2600362 1.04577648-2.075677 1.1223607-.8156409.07658423-1.6273299-.18203613-2.248323-.7163607-1.3064964-1.13159278-1.4832646-3.09416191-.4-4.441 1.094-1.338 6.294-2.829 6.294-2.829s-.484 5.526-1.57 6.864z" fill="#f0c419"/></g></g></svg>